<svg width="418" height="267" viewBox="0 0 418 267" fill="none" xmlns="http://www.w3.org/2000/svg">
<path d="M-193.987 182.828C-221.315 193.549 -226.84 190.89 -233.175 206.928C-239.51 222.965 -246.876 224.648 -284.223 229.167L-291 230.053L-291 267C-284.374 266.464 -277.81 265.128 -271.406 263.013C-250.486 255.925 -220.431 251.495 -208.572 243.432C-196.712 235.369 -202.237 230.053 -180.359 222.079C-158.481 214.104 -105.592 194.435 -81.0623 185.486C-56.5328 176.537 37.3131 141.893 74.6599 141.893C112.007 141.893 134.768 132.058 131.159 141.893C127.549 151.728 132.927 159.614 148.396 157.044C163.598 155.799 178.602 152.196 193.035 146.323C206.736 139.235 209.462 141.007 240.4 140.121C264.016 140.167 287.553 136.866 310.527 130.286C332.921 123.758 355.791 119.871 378.812 118.68C401.573 117.794 418 101.756 418 93.7822C418 85.808 400.689 83.0613 347.873 76.7705C295.058 70.4798 268.686 77.7452 267.729 67.9103C266.771 58.0754 263.162 57.1894 213.071 54.5313C162.981 51.8732 130.201 46.4685 139.409 34.0642C148.617 21.6598 154.142 11.7364 87.4771 9.07828C20.8127 6.4202 12.7835 12.6224 -17.2707 6.42022C-47.3249 0.218047 -68.2451 -3.4147 -123.786 4.64812C-179.328 12.7109 -157.524 22.3686 -216.675 24.2293C-241.545 24.8916 -266.351 27.5557 -290.926 32.2035L-290.926 152.614C-283.869 150.995 -276.621 150.995 -269.564 152.614C-248.128 155.361 -244.961 142.868 -184.853 142.868C-124.744 142.868 -129.311 151.728 -134.762 160.588C-140.213 169.449 -166.658 172.195 -193.987 182.828ZM9.98433 62.5941C15.4353 52.7593 35.4715 55.4174 65.5257 55.4174C95.5799 55.4174 97.4215 58.0754 97.4215 58.0754C110.165 58.9614 102.873 68.7964 75.3228 69.6824C47.7731 70.5684 47.9941 76.7705 26.19 76.7705C4.38597 76.7705 4.53332 72.3404 9.98433 62.5941ZM-210.413 65.2522C-234.133 67.0243 -225.883 56.3919 -211.297 53.6453C-202.253 52.0359 -193.104 51.4427 -183.969 51.8732C-163.049 52.7593 -186.62 63.4802 -210.413 65.2522Z" fill="white" fill-opacity="0.04" style="mix-blend-mode:screen"/>
</svg>
