<svg width="411" height="267" viewBox="0 0 411 267" fill="none" xmlns="http://www.w3.org/2000/svg">
<path d="M611.987 84.1723C639.315 73.4514 644.84 76.1095 651.175 60.0724C657.51 44.0354 664.876 42.352 702.223 37.8332L709 36.9472V0C702.374 0.536397 695.81 1.87215 689.406 3.98712C668.486 11.0753 638.431 15.5054 626.572 23.5682C614.712 31.6311 620.237 36.9472 598.359 44.9214C576.481 52.8957 523.592 72.5654 499.062 81.5143C474.533 90.4631 380.687 125.107 343.34 125.107C305.993 125.107 283.232 134.942 286.841 125.107C290.451 115.272 285.073 107.386 269.604 109.956C254.402 111.201 239.398 114.804 224.965 120.677C211.264 127.765 208.538 125.993 177.6 126.879C153.984 126.833 130.447 130.134 107.473 136.714C85.0793 143.242 62.2095 147.129 39.1884 148.32C16.4267 149.206 0 165.244 0 173.218C0 181.192 17.3107 183.939 70.1266 190.229C122.942 196.52 149.314 189.255 150.271 199.09C151.229 208.925 154.838 209.811 204.929 212.469C255.019 215.127 287.799 220.531 278.591 232.936C269.383 245.34 263.858 255.264 330.523 257.922C397.187 260.58 405.216 254.378 435.271 260.58C465.325 266.782 486.245 270.415 541.786 262.352C597.328 254.289 575.524 244.631 634.675 242.771C659.545 242.108 684.352 239.444 708.926 234.796V114.386C701.869 116.005 694.621 116.005 687.564 114.386C666.128 111.639 662.961 124.132 602.853 124.132C542.744 124.132 547.311 115.272 552.762 106.412C558.213 97.5513 584.658 94.8046 611.987 84.1723ZM408.016 204.406C402.565 214.241 382.529 211.583 352.474 211.583C322.42 211.583 320.579 208.925 320.579 208.925C307.835 208.039 315.128 198.204 342.677 197.318C370.227 196.432 370.006 190.229 391.81 190.229C413.614 190.229 413.467 194.66 408.016 204.406ZM628.413 201.748C652.133 199.976 643.883 210.608 629.297 213.355C620.253 214.964 611.104 215.557 601.969 215.127C581.049 214.241 604.62 203.52 628.413 201.748Z" fill="white" fill-opacity="0.04" style="mix-blend-mode:screen"/>
</svg>
